<svg width="47" height="48" viewBox="0 0 47 48" fill="none" xmlns="http://www.w3.org/2000/svg">
<circle cx="23.5" cy="24" r="23.5" fill="#E1F1FC"/>
<g clip-path="url(#clip0_708_9432)">
<path d="M30.6804 15.4223H29.5706V13.4248H27.3512V15.4223H18.4734V13.4248H16.254V15.4223H15.1442C13.9236 15.4223 12.9248 16.3212 12.9248 17.4198V31.4023C12.9248 32.5009 13.9236 33.3998 15.1442 33.3998H30.6804C31.9011 33.3998 32.8998 32.5009 32.8998 31.4023V17.4198C32.8998 16.3212 31.9011 15.4223 30.6804 15.4223ZM30.6804 31.4023H15.1442V21.4148H30.6804V31.4023ZM15.1442 19.4173V17.4198H30.6804V19.4173H15.1442ZM21.3143 29.8642L27.895 23.9416L26.7187 22.883L21.3143 27.7469L18.9728 25.6395L17.7965 26.6982L21.3143 29.8642Z" fill="#2BAEFE"/>
</g>
<defs>
<clipPath id="clip0_708_9432">
<rect width="28.2" height="28.2" fill="white" transform="translate(9.3999 12.25)"/>
</clipPath>
</defs>
</svg>
