<svg width="1440" height="121" viewBox="0 0 1440 121" fill="none" xmlns="http://www.w3.org/2000/svg">
<path d="M1035.57 82.7795L1049.35 99.3192" stroke="#F4B41A" stroke-linecap="round"/>
<path d="M529.271 38.6737L538.796 46.1584C540.722 47.6711 543.459 47.5671 545.264 45.9126L550.032 41.5424C551.837 39.8879 554.574 39.7839 556.499 41.2966L562.171 45.7526C564.312 47.4349 567.405 47.0947 569.13 44.9872L574.295 38.6737" stroke="#F4B41A" stroke-linecap="round"/>
<path d="M136.912 1V11.4022C136.912 12.9545 137.633 14.4188 138.863 15.3653L141.905 17.705C144.975 20.0667 144.31 24.8719 140.713 26.3105L138.217 27.3089C136.319 28.0683 135.074 29.9068 135.074 31.9513V36.836" stroke="#F4B41A" stroke-linecap="round"/>
<path d="M201.233 2.43213V16.63C201.233 18.1139 201.892 19.5211 203.032 20.4711L203.591 20.9367C205.425 22.4649 205.922 25.0764 204.779 27.1721L201.233 33.6738" stroke="#F4B41A" stroke-width="0.3" stroke-linecap="round"/>
<path d="M0 93.8061C5.20694 85.8425 18.1937 74.6935 28.485 93.8061" stroke="#F4B41A" stroke-linecap="round"/>
<path d="M1215.67 97.4815L1224.41 86.0431C1226.15 83.769 1229.44 83.4166 1231.62 85.2707L1241.25 93.4491C1243.68 95.5194 1247.41 94.8039 1248.9 91.9789L1250.99 88.0374C1252.59 85.0081 1256.7 84.454 1259.05 86.95L1268.96 97.4815" stroke="#F4B41A" stroke-linecap="round"/>
<circle cx="319.767" cy="61.6456" r="14.9708" stroke="#F4B41A" stroke-width="1.3"/>
<circle cx="360.198" cy="76.3475" r="15.4708" stroke="#F4B41A" stroke-width="0.3"/>
<circle cx="243.501" cy="80.9419" r="6.85098" stroke="#F4B41A"/>
<path d="M158.965 102.076C162.334 92.581 172.38 79.288 185.612 102.076" stroke="#F4B41A" stroke-width="0.3" stroke-linecap="round"/>
<path d="M518.916 108.199L491.807 87.0335L523.691 74.1388L518.916 108.199Z" stroke="#F4B41A"/>
<path d="M555.934 116.199L527.869 94.2873L560.877 80.938L555.934 116.199Z" stroke="#F4B41A" stroke-width="0.3"/>
<path d="M649.158 91.9682L669.373 67.1587" stroke="#F4B41A" stroke-width="0.3" stroke-linecap="round"/>
<path d="M653.318 109.427L673.533 84.6173" stroke="#F4B41A" stroke-linecap="round"/>
<path d="M491.597 20.2964L497.699 29.4497C499.347 31.9227 502.777 32.42 505.06 30.5173L513.05 23.8586C515.334 21.9558 518.763 22.4532 520.412 24.9262L522.549 28.1318C524.475 31.0211 528.687 31.1154 530.741 28.3151L536.621 20.2964" stroke="#F4B41A" stroke-width="0.3" stroke-linecap="round"/>
<circle cx="772.772" cy="55.2134" r="16.0397" stroke="#F4B41A"/>
<circle cx="815.04" cy="38.6739" r="16.3897" stroke="#F4B41A" stroke-width="0.3"/>
<circle cx="800.338" cy="108.508" r="6.85098" stroke="#F4B41A"/>
<rect x="940.506" y="35.4983" width="32.0794" height="30.2417" stroke="#F4B41A"/>
<rect x="978.749" y="24.1218" width="32.7794" height="30.9417" stroke="#F4B41A" stroke-width="0.3"/>
<path d="M1033.73 98.4004L1049.35 84.6173" stroke="#F4B41A" stroke-linecap="round"/>
<path d="M1150.99 41.9429L1131.27 76.3397L1111.35 42.0648L1150.99 41.9429Z" stroke="#F4B41A"/>
<path d="M1188.35 26.889L1168.03 62.3376L1147.49 27.0146L1188.35 26.889Z" stroke="#F4B41A" stroke-width="0.3"/>
<path d="M1274.48 83.6985L1285.68 74.5968C1287.67 72.9811 1290.55 73.1301 1292.37 74.9418L1297.28 79.8561C1299.35 81.9245 1302.74 81.7833 1304.63 79.5503L1308.16 75.386C1309.88 73.3513 1312.89 73.0248 1315.01 74.6439L1326.85 83.6985" stroke="#F4B41A" stroke-width="0.3" stroke-linecap="round"/>
<path d="M1386.58 49.7003H1427.01" stroke="#F4B41A" stroke-linecap="round"/>
<path d="M1406.79 35.9172H1439.87" stroke="#F4B41A" stroke-linecap="round"/>
</svg>
