<svg width="800" height="742" viewBox="0 0 800 742" fill="none" xmlns="http://www.w3.org/2000/svg">
<path d="M139.655 215.375L142.734 221.611L149.597 222.618L144.635 227.466L145.795 234.31L139.655 231.078L133.514 234.31L134.674 227.466L129.712 222.618L136.575 221.611L139.655 215.375Z" fill="#EBEBEB"/>
<path d="M754.944 508.6L758.024 514.835L764.887 515.824L759.925 520.672L761.085 527.516L754.944 524.284L748.804 527.516L749.963 520.672L745.001 515.824L751.864 514.835L754.944 508.6Z" fill="#F5F5F5"/>
<path d="M633.065 689.356L636.145 695.592L643.027 696.581L638.046 701.447L639.224 708.291L633.065 705.06L626.924 708.291L628.103 701.447L623.122 696.581L630.004 695.592L633.065 689.356Z" fill="#F5F5F5"/>
<path d="M354.269 104.94L355.41 107.26L357.957 107.621C358.604 107.716 358.851 108.495 358.395 108.952L356.55 110.758L356.988 113.305C357.102 113.933 356.436 114.427 355.866 114.123L353.585 112.925L351.303 114.123C350.733 114.427 350.068 113.933 350.182 113.305L350.619 110.758L348.775 108.952C348.319 108.495 348.566 107.716 349.212 107.621L351.76 107.26L352.9 104.94C353.167 104.37 353.984 104.37 354.269 104.94Z" fill="#EBEBEB"/>
<path d="M40.2653 659.775L41.4059 662.095L43.9534 662.456C44.5807 662.551 44.8469 663.33 44.3906 663.787L42.5466 665.593L42.9838 668.14C43.0979 668.768 42.4325 669.262 41.8622 668.958L39.5809 667.76L37.2996 668.958C36.7292 669.262 36.0638 668.768 36.1779 668.14L36.6152 665.593L34.7711 663.787C34.3148 663.33 34.562 662.551 35.2083 662.456L37.7558 662.095L38.8965 659.775C39.1626 659.205 39.9801 659.205 40.2653 659.775Z" fill="#F5F5F5"/>
<path d="M91.5568 80.5113L92.6974 82.8307L95.2449 83.1919C95.8722 83.2869 96.1384 84.0664 95.6821 84.5227L93.8381 86.3287L94.2753 88.8762C94.3894 89.5035 93.724 89.9978 93.1537 89.6936L90.8724 88.4959L88.591 89.6936C88.0207 89.9978 87.3553 89.5035 87.4694 88.8762L87.9067 86.3287L86.0626 84.5227C85.6063 84.0664 85.8535 83.2869 86.4998 83.1919L89.0473 82.8307L90.188 80.5113C90.4541 79.922 91.2716 79.922 91.5568 80.5113Z" fill="#EBEBEB"/>
<path d="M88.4771 538.713C88.4771 540.101 87.3554 541.242 85.9486 541.242C84.5608 541.242 83.4202 540.12 83.4202 538.713C83.4202 537.325 84.5418 536.185 85.9486 536.185C87.3364 536.185 88.4771 537.306 88.4771 538.713Z" fill="#EBEBEB"/>
<path d="M448.811 222.314C448.811 223.701 447.689 224.842 446.282 224.842C444.894 224.842 443.754 223.72 443.754 222.314C443.754 220.926 444.875 219.785 446.282 219.785C447.67 219.785 448.811 220.926 448.811 222.314Z" fill="#EBEBEB"/>
<path d="M317.692 82.6027C317.692 83.9905 316.571 85.1311 315.164 85.1311C313.776 85.1311 312.635 84.0095 312.635 82.6027C312.635 81.2149 313.757 80.0742 315.164 80.0742C316.571 80.0742 317.692 81.1959 317.692 82.6027Z" fill="#F5F5F5"/>
<path d="M321.755 698.742C329.265 696.969 333.916 689.443 332.143 681.932C330.369 674.422 322.843 669.771 315.333 671.545C307.823 673.318 303.172 680.844 304.945 688.354C306.719 695.865 314.245 700.515 321.755 698.742Z" fill="#F0F0F0"/>
<path d="M313.681 677.057C310.715 677.057 307.959 678.007 305.715 679.642C304.974 681.353 304.556 683.235 304.556 685.212C304.556 692.931 310.81 699.166 318.529 699.166C321.133 699.166 323.586 698.444 325.677 697.189C325.658 697.17 325.658 697.17 325.677 697.17C326.722 695.231 327.312 693.026 327.312 690.668C327.312 683.159 321.209 677.057 313.681 677.057Z" fill="#E6E6E6"/>
<path d="M205.489 442.366H89.7887V390.142L205.47 252.617H260.83V393.108H289.518V442.385H260.83V485.102H205.47V442.366H205.489ZM205.489 393.108V321.171L144.35 393.108H205.489Z" fill="#403F86"/>
<path d="M309.327 369.877C309.327 326.437 317.141 296.019 332.787 278.662C348.433 261.305 372.253 252.617 404.268 252.617C419.648 252.617 432.271 254.518 442.157 258.301C452.023 262.104 460.084 267.027 466.32 273.111C472.555 279.195 477.46 285.582 481.053 292.293C484.646 299.004 487.517 306.817 489.703 315.753C493.962 332.805 496.091 350.581 496.091 369.078C496.091 410.56 489.076 440.902 475.046 460.141C461.016 479.38 436.853 488.98 402.538 488.98C383.299 488.98 367.767 485.92 355.923 479.779C344.079 473.639 334.346 464.665 326.76 452.803C321.247 444.381 316.97 432.879 313.89 418.26C310.848 403.678 309.327 387.538 309.327 369.877ZM372.311 370.029C372.311 399.135 374.877 419.02 380.029 429.666C385.181 440.312 392.633 445.654 402.405 445.654C408.85 445.654 414.439 443.392 419.173 438.868C423.906 434.343 427.385 427.195 429.629 417.423C431.872 407.652 432.974 392.424 432.974 371.74C432.974 341.398 430.408 321 425.256 310.544C420.104 300.088 412.386 294.879 402.101 294.879C391.607 294.879 384.021 300.202 379.345 310.867C374.649 321.513 372.311 341.227 372.311 370.029Z" fill="#403F86"/>
<path d="M631.449 442.366H515.748V390.142L631.449 252.617H686.809V393.108H715.496V442.385H686.809V485.102H631.449V442.366ZM631.449 393.108V321.171L570.31 393.108H631.449Z" fill="#403F86"/>
<g opacity="0.3">
<path opacity="0.3" d="M306.761 172.372C306.761 174.331 305.164 175.927 303.206 175.927C301.248 175.927 299.651 174.331 299.651 172.372C299.651 170.414 301.248 168.817 303.206 168.817C305.164 168.817 306.761 170.414 306.761 172.372Z" fill="#403F86"/>
<path opacity="0.3" d="M63.4395 308.928C64.8254 308.928 65.9489 307.805 65.9489 306.419C65.9489 305.033 64.8254 303.909 63.4395 303.909C62.0536 303.909 60.9301 305.033 60.9301 306.419C60.9301 307.805 62.0536 308.928 63.4395 308.928Z" fill="#403F86"/>
<path opacity="0.3" d="M478.049 675.402C480.034 675.402 481.642 673.793 481.642 671.809C481.642 669.825 480.034 668.216 478.049 668.216C476.065 668.216 474.456 669.825 474.456 671.809C474.456 673.793 476.065 675.402 478.049 675.402Z" fill="#403F86"/>
<path opacity="0.3" d="M564.435 529.208C565.821 529.208 566.945 528.085 566.945 526.699C566.945 525.313 565.821 524.189 564.435 524.189C563.049 524.189 561.926 525.313 561.926 526.699C561.926 528.085 563.049 529.208 564.435 529.208Z" fill="#403F86"/>
<path opacity="0.3" d="M731.123 77.3173C731.123 78.7051 730.002 79.8268 728.614 79.8268C727.226 79.8268 726.104 78.7051 726.104 77.3173C726.104 75.9295 727.226 74.8079 728.614 74.8079C730.002 74.7888 731.123 75.9295 731.123 77.3173Z" fill="#403F86"/>
<path opacity="0.3" d="M253.15 26.6344C253.15 28.0222 252.028 29.1439 250.64 29.1439C249.252 29.1439 248.131 28.0222 248.131 26.6344C248.131 25.2466 249.252 24.125 250.64 24.125C252.028 24.125 253.15 25.2466 253.15 26.6344Z" fill="#403F86"/>
<path opacity="0.3" d="M452.651 158.38C454.037 158.38 455.16 157.257 455.16 155.871C455.16 154.485 454.037 153.361 452.651 153.361C451.265 153.361 450.141 154.485 450.141 155.871C450.141 157.257 451.265 158.38 452.651 158.38Z" fill="#403F86"/>
</g>
<path d="M193.227 158.4C216.232 158.4 234.88 139.751 234.88 116.747C234.88 93.7423 216.232 75.0938 193.227 75.0938C170.223 75.0938 151.574 93.7423 151.574 116.747C151.574 139.751 170.223 158.4 193.227 158.4Z" fill="#403F86"/>
<path opacity="0.7" d="M193.227 158.4C216.232 158.4 234.88 139.751 234.88 116.747C234.88 93.7423 216.232 75.0938 193.227 75.0938C170.223 75.0938 151.574 93.7423 151.574 116.747C151.574 139.751 170.223 158.4 193.227 158.4Z" fill="white"/>
<path opacity="0.2" d="M178.874 85.3213C173.038 85.3213 167.486 86.519 162.449 88.6862C155.7 96.0815 151.574 105.948 151.574 116.746C151.574 139.75 170.224 158.38 193.208 158.38C199.064 158.38 204.653 157.183 209.71 154.996C209.71 154.996 209.71 154.996 209.71 154.977C216.421 147.582 220.508 137.753 220.508 126.974C220.527 103.952 201.896 85.3213 178.874 85.3213Z" fill="#403F86"/>
<path opacity="0.2" d="M174.73 96.3286C174.73 98.4388 173.019 100.131 170.927 100.131C168.817 100.131 167.125 98.4198 167.125 96.3286C167.125 94.2183 168.836 92.5264 170.927 92.5264C173.019 92.5264 174.73 94.2183 174.73 96.3286Z" fill="#403F86"/>
<path opacity="0.2" d="M219.52 92.527C219.52 94.6372 217.809 96.3291 215.717 96.3291C213.607 96.3291 211.915 94.6182 211.915 92.527C211.915 90.4167 213.626 88.7248 215.717 88.7248C217.809 88.7058 219.52 90.4167 219.52 92.527Z" fill="#403F86"/>
<path opacity="0.2" d="M211.896 119.674C211.896 123.115 209.101 125.91 205.661 125.91C202.22 125.91 199.425 123.115 199.425 119.674C199.425 116.233 202.22 113.438 205.661 113.438C209.121 113.438 211.896 116.233 211.896 119.674Z" fill="#403F86"/>
<path opacity="0.2" d="M192.106 137.43C192.106 142.031 188.38 145.757 183.779 145.757C179.178 145.757 175.452 142.031 175.452 137.43C175.452 132.83 179.178 129.104 183.779 129.104C188.38 129.104 192.106 132.83 192.106 137.43Z" fill="#403F86"/>
<path d="M686.905 619.283C691.545 599.634 679.377 579.944 659.727 575.304C640.078 570.664 620.388 582.832 615.748 602.481C611.108 622.131 623.276 641.821 642.925 646.461C662.575 651.1 682.265 638.933 686.905 619.283Z" fill="#403F86"/>
<path opacity="0.3" d="M686.905 619.283C691.545 599.634 679.377 579.944 659.727 575.304C640.078 570.664 620.388 582.832 615.748 602.481C611.108 622.131 623.276 641.821 642.925 646.461C662.575 651.1 682.265 638.933 686.905 619.283Z" fill="white"/>
<path opacity="0.4" d="M674.395 582.476C671.068 581.469 667.532 580.937 663.863 580.937C643.673 580.937 627.304 597.305 627.304 617.495C627.304 628.939 632.551 639.129 640.783 645.84C644.11 646.848 647.646 647.38 651.315 647.38C671.505 647.38 687.873 631.011 687.873 610.822C687.873 599.377 682.626 589.168 674.395 582.476Z" fill="#403F86"/>
<path d="M616.411 621.659C577.382 640.023 606.487 654.186 661.486 634.415C712.398 616.107 731.77 593.028 686.295 600.176C688.634 609.891 624.871 634.738 616.411 621.659Z" fill="#403F86"/>
<path opacity="0.2" d="M673.938 252.617C622.818 287.16 556.641 332.71 538.371 442.366H534.474C552.249 334.041 616.012 287.293 667.151 252.617H673.938Z" fill="#1F1E4C"/>
<path d="M409.534 595.632C377.272 595.632 345.258 581.07 329.707 557.249C320.106 542.535 308.947 511.718 342.178 470.597L345.144 472.993C321.646 502.079 317.293 531.261 332.901 555.177C351.893 584.283 396.778 598.921 435.047 588.503C474.266 577.838 498.068 543.713 500.368 494.912C508.22 327.977 596.906 276.571 661.676 239.025C701.903 215.698 730.971 198.836 724.584 163.285C723.69 158.361 721.732 154.939 718.576 152.867C710.306 147.411 694.147 151.175 675.44 155.548C638.73 164.103 588.465 175.813 558.523 124.883L561.793 122.963C590.328 171.479 637.038 160.605 674.566 151.86C694.128 147.297 711.029 143.362 720.667 149.711C724.736 152.392 727.245 156.631 728.329 162.639C735.192 200.813 703.595 219.139 663.577 242.333C599.586 279.442 511.927 330.258 504.171 495.121C501.794 545.691 476.966 581.07 436.054 592.191C427.423 594.53 418.469 595.632 409.534 595.632Z" fill="#403F86"/>
<path opacity="0.2" d="M409.534 595.632C377.272 595.632 345.258 581.07 329.707 557.249C320.106 542.535 308.947 511.718 342.178 470.597L345.144 472.993C321.646 502.079 317.293 531.261 332.901 555.177C351.893 584.283 396.778 598.921 435.047 588.503C474.266 577.838 498.068 543.713 500.368 494.912C508.22 327.977 596.906 276.571 661.676 239.025C701.903 215.698 730.971 198.836 724.584 163.285C723.69 158.361 721.732 154.939 718.576 152.867C710.306 147.411 694.147 151.175 675.44 155.548C638.73 164.103 588.465 175.813 558.523 124.883L561.793 122.963C590.328 171.479 637.038 160.605 674.566 151.86C694.128 147.297 711.029 143.362 720.667 149.711C724.736 152.392 727.245 156.631 728.329 162.639C735.192 200.813 703.595 219.139 663.577 242.333C599.586 279.442 511.927 330.258 504.171 495.121C501.794 545.691 476.966 581.07 436.054 592.191C427.423 594.53 418.469 595.632 409.534 595.632Z" fill="white"/>
<path d="M519.303 79.8457C532.345 79.6176 545.12 83.8951 545.12 83.8951C545.12 83.8951 565.956 119.579 568.504 127.753C567.629 135.814 554.017 149.027 554.017 149.027L519.303 79.8457Z" fill="#403F86"/>
<path opacity="0.3" d="M519.303 79.8457C532.345 79.6176 545.12 83.8951 545.12 83.8951C545.12 83.8951 565.956 119.579 568.504 127.753C567.629 135.814 554.017 149.027 554.017 149.027L519.303 79.8457Z" fill="white"/>
<path d="M581.26 253.187C573.389 243.206 565.671 233.055 559.283 222.028C557.686 219.272 556.165 216.477 554.74 213.625C553.922 212.009 553.143 210.374 552.382 208.74C551.717 207.314 550.234 205.203 550.101 203.645C547.82 179.558 556.07 161.82 548.143 142.486L516.832 154.729C516.832 154.729 519.493 189.177 525.577 209.785C529.341 222.579 537.877 233.644 546.109 243.891C548.675 247.104 551.166 250.374 553.732 253.586C556.165 256.628 558.884 259.404 561.317 262.426C565.025 267.008 566.241 271.4 563.428 276.799C563.276 277.084 563.123 277.369 562.952 277.654C562.154 279.061 565.899 280.658 568.237 277.692C572.116 272.787 571.507 273.092 574.815 268.909C576.83 266.362 579.131 263.624 581.127 261.248C583.085 258.928 583.123 255.563 581.26 253.187Z" fill="#403F86"/>
<path opacity="0.7" d="M581.26 253.187C573.389 243.206 565.671 233.055 559.283 222.028C557.686 219.272 556.165 216.477 554.74 213.625C553.922 212.009 553.143 210.374 552.382 208.74C551.717 207.314 550.234 205.203 550.101 203.645C547.82 179.558 556.07 161.82 548.143 142.486L516.832 154.729C516.832 154.729 519.493 189.177 525.577 209.785C529.341 222.579 537.877 233.644 546.109 243.891C548.675 247.104 551.166 250.374 553.732 253.586C556.165 256.628 558.884 259.404 561.317 262.426C565.025 267.008 566.241 271.4 563.428 276.799C563.276 277.084 563.123 277.369 562.952 277.654C562.154 279.061 565.899 280.658 568.237 277.692C572.116 272.787 571.507 273.092 574.815 268.909C576.83 266.362 579.131 263.624 581.127 261.248C583.085 258.928 583.123 255.563 581.26 253.187Z" fill="white"/>
<path opacity="0.3" d="M573.599 243.282C569.397 248.358 560.88 254.917 557.135 257.578C557.953 258.491 558.77 259.422 559.568 260.354C567.306 255.297 573.408 248.757 575.728 246.096C575.005 245.164 574.302 244.214 573.599 243.282Z" fill="#403F86"/>
<path opacity="0.3" d="M581.241 253.187C581.165 253.092 581.089 253.016 581.013 252.902C579.701 254.271 578.769 256.476 578.617 258.929C578.484 260.621 578.769 262.18 579.34 263.396C579.967 262.655 580.557 261.933 581.146 261.248C583.085 258.929 583.123 255.564 581.241 253.187Z" fill="#403F86"/>
<path d="M511.87 102.659C508.6 107.431 504.741 112.126 499.741 116.328C497.27 118.438 494.437 120.358 491.338 121.993C489.779 122.792 488.125 123.476 486.433 124.046L485.16 124.464L484.741 124.598C484.437 124.693 484.133 124.769 483.829 124.845C483.258 124.978 482.688 125.054 482.175 125.111C480.122 125.263 478.62 124.978 477.403 124.674C474.97 124.008 473.354 123.134 471.814 122.278C470.293 121.404 468.981 120.51 467.726 119.598C465.255 117.716 463.012 115.814 460.921 113.799C456.719 109.788 452.993 105.625 449.533 100.986C447.955 98.8757 448.392 95.891 450.503 94.3131C452.137 93.0964 454.286 93.0774 455.902 94.104L456.054 94.199C460.54 97.0507 465.065 100.054 469.475 102.735C471.7 104.047 473.886 105.377 476.034 106.404C477.08 106.936 478.125 107.431 479.057 107.773C479.97 108.134 480.863 108.324 481.11 108.286C481.205 108.286 481.091 108.153 480.388 108.172C480.217 108.172 479.97 108.21 479.741 108.248C479.608 108.267 479.456 108.305 479.323 108.362C479.19 108.4 479.38 108.324 479.38 108.324L480.008 108.001C480.844 107.583 481.643 107.05 482.46 106.499C484.095 105.396 485.635 104.009 487.213 102.469C490.35 99.37 493.353 95.4918 496.528 91.4615L496.566 91.4044C499.817 87.279 505.805 86.5756 509.931 89.8455C513.866 92.9253 514.665 98.5715 511.87 102.659Z" fill="#403F86"/>
<path opacity="0.7" d="M511.87 102.659C508.6 107.431 504.741 112.126 499.741 116.328C497.27 118.438 494.437 120.358 491.338 121.993C489.779 122.792 488.125 123.476 486.433 124.046L485.16 124.464L484.741 124.598C484.437 124.693 484.133 124.769 483.829 124.845C483.258 124.978 482.688 125.054 482.175 125.111C480.122 125.263 478.62 124.978 477.403 124.674C474.97 124.008 473.354 123.134 471.814 122.278C470.293 121.404 468.981 120.51 467.726 119.598C465.255 117.716 463.012 115.814 460.921 113.799C456.719 109.788 452.993 105.625 449.533 100.986C447.955 98.8757 448.392 95.891 450.503 94.3131C452.137 93.0964 454.286 93.0774 455.902 94.104L456.054 94.199C460.54 97.0507 465.065 100.054 469.475 102.735C471.7 104.047 473.886 105.377 476.034 106.404C477.08 106.936 478.125 107.431 479.057 107.773C479.97 108.134 480.863 108.324 481.11 108.286C481.205 108.286 481.091 108.153 480.388 108.172C480.217 108.172 479.97 108.21 479.741 108.248C479.608 108.267 479.456 108.305 479.323 108.362C479.19 108.4 479.38 108.324 479.38 108.324L480.008 108.001C480.844 107.583 481.643 107.05 482.46 106.499C484.095 105.396 485.635 104.009 487.213 102.469C490.35 99.37 493.353 95.4918 496.528 91.4615L496.566 91.4044C499.817 87.279 505.805 86.5756 509.931 89.8455C513.866 92.9253 514.665 98.5715 511.87 102.659Z" fill="white"/>
<path d="M442.366 90.2256L444.59 93.9707C444.59 93.9707 446.301 98.9516 449.704 99.8641L458.924 96.8794L458.468 96.1C458.468 96.1 458.468 96.1 458.487 96.1C457.309 94.2939 457.442 90.8339 457.841 87.9443C458.259 85.0546 456.757 84.9596 455.655 85.663C455.008 86.0812 454.571 87.393 454.039 88.8188C453.582 88.1914 453.107 87.5831 452.556 87.0508L449.742 84.2371C448.525 83.0204 446.567 82.9634 445.294 84.1041L443.012 86.1382C441.834 87.1838 441.567 88.8948 442.366 90.2256Z" fill="#403F86"/>
<path opacity="0.7" d="M442.366 90.2256L444.59 93.9707C444.59 93.9707 446.301 98.9516 449.704 99.8641L458.924 96.8794L458.468 96.1C458.468 96.1 458.468 96.1 458.487 96.1C457.309 94.2939 457.442 90.8339 457.841 87.9443C458.259 85.0546 456.757 84.9596 455.655 85.663C455.008 86.0812 454.571 87.393 454.039 88.8188C453.582 88.1914 453.107 87.5831 452.556 87.0508L449.742 84.2371C448.525 83.0204 446.567 82.9634 445.294 84.1041L443.012 86.1382C441.834 87.1838 441.567 88.8948 442.366 90.2256Z" fill="white"/>
<path d="M528.657 76.5569C519.817 78.7051 507.669 83.7431 499.475 88.857C496.566 90.663 495.121 94.104 495.806 97.4499C499.456 115.396 507.802 139.426 516.813 154.73L558.846 137.335C559.131 129.921 548.922 105.929 538.542 82.7355C536.679 78.5911 533.105 75.4923 528.657 76.5569Z" fill="#403F86"/>
<path opacity="0.8" d="M528.657 76.5569C519.817 78.7051 507.669 83.7431 499.475 88.857C496.566 90.663 495.121 94.104 495.806 97.4499C499.456 115.396 507.802 139.426 516.813 154.73L558.846 137.335C559.131 129.921 548.922 105.929 538.542 82.7355C536.679 78.5911 533.105 75.4923 528.657 76.5569Z" fill="white"/>
<path opacity="0.3" d="M545.044 97.4499L536.698 94.6553C538.561 99.5411 545.31 105.72 550.063 109.351C548.504 105.549 546.812 101.556 545.044 97.4499Z" fill="#403F86"/>
<path d="M525.881 57.7359C522.421 51.12 514.912 47.7931 505.882 48.5346C498.277 49.1619 491.547 56.9374 492.346 61.1198C493.144 65.3212 499.532 67.0892 500.692 68.5531L495.426 72.3743C492.802 74.2754 492.289 77.9825 494.285 80.53C496.509 83.3436 499.418 86.2903 501.129 88.3625C515.691 87.9823 526.47 82.4311 530.349 77.07C528.98 70.2641 529.341 64.3136 525.881 57.7359Z" fill="#403F86"/>
<path opacity="0.8" d="M525.881 57.7359C522.421 51.12 514.912 47.7931 505.882 48.5346C498.277 49.1619 491.547 56.9374 492.346 61.1198C493.144 65.3212 499.532 67.0892 500.692 68.5531L495.426 72.3743C492.802 74.2754 492.289 77.9825 494.285 80.53C496.509 83.3436 499.418 86.2903 501.129 88.3625C515.691 87.9823 526.47 82.4311 530.349 77.07C528.98 70.2641 529.341 64.3136 525.881 57.7359Z" fill="white"/>
<path d="M518.752 61.8234C521.642 69.2376 517.992 77.5834 510.577 80.4731C503.163 83.3628 494.817 79.7127 491.928 72.2984C489.038 64.8841 492.688 56.5383 500.102 53.6487C507.497 50.759 515.843 54.4281 518.752 61.8234Z" fill="#2F2D69"/>
<path d="M642.171 233.15C641.962 226.895 641.696 227.522 641.506 222.199C641.392 218.967 641.373 215.374 641.354 212.276C641.335 209.253 639.186 206.648 636.221 206.04C633.692 205.527 631.183 205.051 628.654 204.5C625.365 203.797 622.134 203.055 618.902 202.105C616.411 201.382 613.921 200.584 611.487 199.69C608.864 198.74 606.278 197.713 603.712 196.611C600.708 195.318 597.761 193.949 594.815 192.542C591.526 190.964 588.275 189.348 585.043 187.694C572.534 166.973 572.268 153.342 558.827 137.315L530.025 150.376C530.025 150.376 551.204 187.942 565.633 203.873C573.941 213.036 586.963 217.18 598.579 220.165C606.963 222.332 615.461 223.986 623.959 225.545C627.266 226.154 630.86 226.382 633.711 228.359C635.954 229.918 637.114 232.351 637.78 234.918C637.913 235.45 638.027 235.982 638.122 236.515C638.426 238.131 642.304 236.933 642.171 233.15Z" fill="#403F86"/>
<path opacity="0.8" d="M642.171 233.15C641.962 226.895 641.696 227.522 641.506 222.199C641.392 218.967 641.373 215.374 641.354 212.276C641.335 209.253 639.186 206.648 636.221 206.04C633.692 205.527 631.183 205.051 628.654 204.5C625.365 203.797 622.134 203.055 618.902 202.105C616.411 201.382 613.921 200.584 611.487 199.69C608.864 198.74 606.278 197.713 603.712 196.611C600.708 195.318 597.761 193.949 594.815 192.542C591.526 190.964 588.275 189.348 585.043 187.694C572.534 166.973 572.268 153.342 558.827 137.315L530.025 150.376C530.025 150.376 551.204 187.942 565.633 203.873C573.941 213.036 586.963 217.18 598.579 220.165C606.963 222.332 615.461 223.986 623.959 225.545C627.266 226.154 630.86 226.382 633.711 228.359C635.954 229.918 637.114 232.351 637.78 234.918C637.913 235.45 638.027 235.982 638.122 236.515C638.426 238.131 642.304 236.933 642.171 233.15Z" fill="white"/>
<path opacity="0.3" d="M627.571 204.272C626.43 204.024 625.289 203.777 624.13 203.492C624.225 210.051 621.145 221.401 620.004 224.822C621.202 225.051 622.419 225.279 623.616 225.507C626.962 216.496 627.495 206.952 627.571 204.272Z" fill="#403F86"/>
<path opacity="0.3" d="M641.373 212.276C641.354 209.234 639.224 206.648 636.259 206.04C635.669 205.926 635.042 205.793 634.453 205.679C634.586 207.466 635.688 209.538 637.551 211.192C638.768 212.295 640.156 213.017 641.411 213.359C641.373 212.979 641.373 212.618 641.373 212.276Z" fill="#403F86"/>
<path d="M516.052 61.9565C516.813 64.8462 513.6 67.8689 511.015 65.3785C508.923 63.3633 505.768 59.9603 503.182 58.3634C500.54 56.7095 504.057 53.8198 508.22 54.9414C512.117 55.968 515.292 59.0668 516.052 61.9565Z" fill="white"/>
<path d="M516.281 153.817C514.95 154.311 517.383 156.593 517.383 156.593C517.383 156.593 543.941 147.486 560.158 138.114C560.291 136.156 558.865 135.11 558.865 135.11C558.865 135.11 539.132 145.376 516.281 153.817Z" fill="#403F86"/>
<path opacity="0.5" d="M516.281 153.817C514.95 154.311 517.383 156.593 517.383 156.593C517.383 156.593 543.941 147.486 560.158 138.114C560.291 136.156 558.865 135.11 558.865 135.11C558.865 135.11 539.132 145.376 516.281 153.817Z" fill="white"/>
<path d="M535.862 75.302C541.109 77.9446 546.033 80.7582 550.976 83.857C553.428 85.3968 555.88 86.9938 558.276 88.7048C560.709 90.3777 563.085 92.1457 565.5 94.1419L566.393 94.8833L567.515 95.8909C568.313 96.5943 568.903 97.2407 569.492 97.887C570.101 98.5524 570.614 99.1988 571.108 99.8452C571.621 100.492 572.116 101.138 572.572 101.765C574.454 104.294 575.994 106.86 577.496 109.408C580.423 114.579 582.952 119.731 585.043 125.282C585.975 127.753 584.72 130.51 582.249 131.441C580.385 132.145 578.37 131.612 577.078 130.244L576.983 130.149C573.161 126.099 569.492 121.841 565.804 117.868C562.192 113.913 558.371 109.864 555.272 108.096C550.956 105.396 546.147 102.735 541.375 100.092L527.003 92.1077L526.965 92.0887C522.364 89.5412 520.71 83.7619 523.257 79.1613C525.748 74.6937 531.318 73.0207 535.862 75.302Z" fill="#403F86"/>
<path opacity="0.8" d="M535.862 75.302C541.109 77.9446 546.033 80.7582 550.976 83.857C553.428 85.3968 555.88 86.9938 558.276 88.7048C560.709 90.3777 563.085 92.1457 565.5 94.1419L566.393 94.8833L567.515 95.8909C568.313 96.5943 568.903 97.2407 569.492 97.887C570.101 98.5524 570.614 99.1988 571.108 99.8452C571.621 100.492 572.116 101.138 572.572 101.765C574.454 104.294 575.994 106.86 577.496 109.408C580.423 114.579 582.952 119.731 585.043 125.282C585.975 127.753 584.72 130.51 582.249 131.441C580.385 132.145 578.37 131.612 577.078 130.244L576.983 130.149C573.161 126.099 569.492 121.841 565.804 117.868C562.192 113.913 558.371 109.864 555.272 108.096C550.956 105.396 546.147 102.735 541.375 100.092L527.003 92.1077L526.965 92.0887C522.364 89.5412 520.71 83.7619 523.257 79.1613C525.748 74.6937 531.318 73.0207 535.862 75.302Z" fill="white"/>
<path d="M589.606 134.578L587.99 130.529C587.99 130.529 587.096 125.358 583.864 123.913L574.283 125.415L574.625 126.251C574.625 126.251 574.625 126.251 574.606 126.251C575.5 128.21 574.815 131.632 573.96 134.407C573.104 137.202 574.568 137.525 575.766 136.993C576.469 136.688 577.116 135.453 577.857 134.122C578.199 134.806 578.598 135.491 579.055 136.118L581.393 139.331C582.401 140.719 584.321 141.08 585.766 140.148L588.332 138.494C589.644 137.677 590.176 136.023 589.606 134.578Z" fill="#403F86"/>
<path opacity="0.8" d="M589.606 134.578L587.99 130.529C587.99 130.529 587.096 125.358 583.864 123.913L574.283 125.415L574.625 126.251C574.625 126.251 574.625 126.251 574.606 126.251C575.5 128.21 574.815 131.632 573.96 134.407C573.104 137.202 574.568 137.525 575.766 136.993C576.469 136.688 577.116 135.453 577.857 134.122C578.199 134.806 578.598 135.491 579.055 136.118L581.393 139.331C582.401 140.719 584.321 141.08 585.766 140.148L588.332 138.494C589.644 137.677 590.176 136.023 589.606 134.578Z" fill="white"/>
<path opacity="0.3" d="M527.82 97.1455L525.501 97.3356L511.262 131.707C512.098 131.764 512.859 131.688 513.581 131.517C513.581 131.517 532.136 124.597 537.744 122.069C533.98 114.255 527.82 97.1455 527.82 97.1455Z" fill="#403F86"/>
<path d="M501.832 106.176C502.631 112.373 507.269 125.529 511.262 131.726C518.22 129.331 529.816 124.806 535.425 122.278C531.641 114.445 527.668 103.647 525.482 97.3545C519.512 97.7347 506.471 102.659 501.832 106.176Z" fill="white"/>
<path opacity="0.3" d="M515.976 113.609C515.197 116.195 512.459 117.677 509.874 116.898C507.288 116.119 505.806 113.381 506.585 110.795C507.364 108.21 510.102 106.727 512.687 107.507C515.273 108.286 516.737 111.024 515.976 113.609Z" fill="#403F86"/>
<path opacity="0.6" d="M519.607 107.069C519.36 107.925 518.467 108.4 517.611 108.153C516.756 107.906 516.281 107.012 516.528 106.157C516.775 105.301 517.687 104.826 518.524 105.073C519.379 105.32 519.855 106.214 519.607 107.069Z" fill="#403F86"/>
<path opacity="0.6" d="M523.847 105.415C523.6 106.27 522.706 106.746 521.851 106.499C520.995 106.251 520.52 105.358 520.767 104.502C521.014 103.647 521.908 103.172 522.763 103.419C523.619 103.666 524.094 104.559 523.847 105.415Z" fill="#403F86"/>
<path opacity="0.5" d="M529.835 120.206L512.25 127.164L511.186 123.704L528.771 116.765L529.835 120.206Z" fill="#403F86"/>
<path opacity="0.2" d="M432.803 384.44C432.423 398.774 431.359 409.781 429.61 417.424C427.366 427.195 423.887 434.343 419.154 438.868C414.439 443.393 408.85 445.655 402.405 445.655C392.633 445.655 385.162 440.332 380.029 429.667C379.192 427.937 378.432 425.96 377.729 423.754C366.873 433.089 356.76 443.279 347.463 454.229L337.368 466.13C342.825 471.662 349.022 476.206 355.942 479.799C367.786 485.92 383.318 489 402.557 489C405.941 489 409.211 488.905 412.386 488.715C424.02 471.491 433.659 452.974 441.092 433.545L469.323 359.935L432.803 384.44Z" fill="#1F1E4C"/>
<path d="M178.304 484.798C188.95 495.444 211.573 518.067 211.573 518.067L304.746 430.294C272.693 418.108 210.185 452.917 178.304 484.798Z" fill="#2F2D69"/>
<path d="M294.347 600.822C283.7 590.176 261.077 567.553 261.077 567.553L348.851 474.38C361.018 506.432 326.228 568.94 294.347 600.822Z" fill="#2F2D69"/>
<path d="M421.663 391.15L457.955 321.171L387.976 357.463C365.486 369.117 344.745 383.85 326.304 401.207L207.01 513.505L265.621 572.116L377.919 452.822C395.295 434.381 410.009 413.621 421.663 391.15Z" fill="#403F86"/>
<path opacity="0.6" d="M421.663 391.15L457.955 321.171L387.976 357.463C365.486 369.117 344.745 383.85 326.304 401.207L207.01 513.505L265.621 572.116L377.919 452.822C395.295 434.381 410.009 413.621 421.663 391.15Z" fill="white"/>
<path d="M347.14 456.51C360.684 456.51 371.664 445.53 371.664 431.986C371.664 418.442 360.684 407.462 347.14 407.462C333.596 407.462 322.616 418.442 322.616 431.986C322.616 445.53 333.596 456.51 347.14 456.51Z" fill="white"/>
<path d="M347.14 447.746C355.844 447.746 362.9 440.69 362.9 431.986C362.9 423.282 355.844 416.226 347.14 416.226C338.436 416.226 331.38 423.282 331.38 431.986C331.38 440.69 338.436 447.746 347.14 447.746Z" fill="#403F86"/>
<path opacity="0.3" d="M285.449 551.052L228.074 493.676L275.05 449.457L329.669 504.075L285.449 551.052Z" fill="#403F86"/>
<path d="M191.307 537.363C148.342 540.861 134.103 568.37 129.236 604.928C126.765 623.578 125.662 642.437 109.997 653.368C105.644 656.391 107.811 663.159 113.096 662.988C170.775 661.182 197.676 632.95 201.06 621.126C199.9 628.597 198.208 634.509 196.326 639.129C194.387 643.901 199.634 648.311 203.988 645.574C220.185 635.422 240.489 616.772 241.838 586.488C229.861 569.663 191.307 537.363 191.307 537.363Z" fill="#403F86"/>
<path opacity="0.2" d="M191.307 537.363C148.342 540.861 134.103 568.37 129.236 604.928C126.765 623.578 125.662 642.437 109.997 653.368C105.644 656.391 107.811 663.159 113.096 662.988C170.775 661.182 197.676 632.95 201.06 621.126C199.9 628.597 198.208 634.509 196.326 639.129C194.387 643.901 199.634 648.311 203.988 645.574C220.185 635.422 240.489 616.772 241.838 586.488C229.861 569.663 191.307 537.363 191.307 537.363Z" fill="white"/>
<path d="M248.435 599.51L179.635 530.69L216.288 522.763L256.363 562.838L248.435 599.51Z" fill="#403F86"/>
</svg>
