<svg width="22" height="32" viewBox="0 0 22 32" fill="none" xmlns="http://www.w3.org/2000/svg">
<path d="M21.9401 10.1101C21.7398 9.79205 21.4394 9.58001 21.0388 9.58001H12.0261V1.09844C12.0261 0.674357 11.7256 0.250279 11.3251 0.0382392C10.9245 -0.0677805 10.4238 0.0382392 10.2235 0.462318L0.209314 15.3051C0.00902973 15.6231 -0.0911121 16.0472 0.109172 16.3653C0.309456 16.7894 0.609881 17.0014 1.01045 17.0014H9.82294L8.02038 30.6779C7.92024 31.208 8.22067 31.6321 8.62123 31.8442C8.72138 31.8442 8.82152 31.9502 8.92166 31.9502C9.22208 31.9502 9.62265 31.7381 9.72279 31.4201L21.7398 11.2763C22.0402 10.8523 22.0402 10.4282 21.9401 10.1101Z" fill="#143D59"/>
</svg>
