<svg width="27" height="27" viewBox="0 0 27 27" fill="none" xmlns="http://www.w3.org/2000/svg">
<g clip-path="url(#clip0_949_317)">
<path d="M0.632812 1.89844H26.3672V26.3672H0.632812V1.89844Z" fill="white"/>
<path d="M1.47656 1.89844H26.3672V26.3672H1.47656V1.89844Z" fill="#2BAEFE"/>
<path d="M1.47656 1.89844H25.1016V25.5234H1.47656V1.89844Z" fill="#33CCFF"/>
<path d="M1.47656 1.89844H26.3672V6.53906H1.47656V1.89844Z" fill="#FA6E34"/>
<path d="M1.47656 1.89844H25.1016V6.53906H1.47656V1.89844Z" fill="#FA8840"/>
<path d="M9.91406 0.632812H11.1797V3.16406H9.91406V0.632812ZM4.00781 0.632812H5.27344V3.16406H4.00781V0.632812ZM15.8203 0.632812H17.0859V3.16406H15.8203V0.632812ZM21.7266 0.632812H22.9922V3.16406H21.7266V0.632812Z" fill="#FDCC32"/>
<path d="M26.3672 20.8828L20.8828 26.3672V20.8828H26.3672Z" fill="#FA6E34"/>
<path d="M25.1016 20.8828L20.8828 25.1016V20.8828H25.1016Z" fill="#FA8840"/>
<path d="M23.8359 9.07031V20.8828H20.8828V23.8359H3.16406V9.07031H23.8359Z" fill="#FFB612"/>
<path d="M22.5703 9.07031V20.8828H20.8828V23.8359H3.16406V9.07031H22.5703Z" fill="#FDCC32"/>
<path d="M26.3672 26.5781H0.632812C0.576868 26.5781 0.523216 26.5559 0.483657 26.5163C0.444099 26.4768 0.421875 26.4231 0.421875 26.3672C0.421875 26.3112 0.444099 26.2576 0.483657 26.218C0.523216 26.1785 0.576868 26.1562 0.632812 26.1562H26.1562V5.69531C26.1562 5.63937 26.1785 5.58572 26.218 5.54616C26.2576 5.5066 26.3112 5.48438 26.3672 5.48438C26.4231 5.48438 26.4768 5.5066 26.5163 5.54616C26.5559 5.58572 26.5781 5.63937 26.5781 5.69531V26.3672C26.5781 26.4231 26.5559 26.4768 26.5163 26.5163C26.4768 26.5559 26.4231 26.5781 26.3672 26.5781ZM0.632812 22.7812C0.576868 22.7812 0.523216 22.759 0.483657 22.7195C0.444099 22.6799 0.421875 22.6263 0.421875 22.5703V1.89844C0.421875 1.84249 0.444099 1.78884 0.483657 1.74928C0.523216 1.70972 0.576868 1.6875 0.632812 1.6875H4.00781C4.06376 1.6875 4.11741 1.70972 4.15697 1.74928C4.19653 1.78884 4.21875 1.84249 4.21875 1.89844C4.21875 1.95438 4.19653 2.00803 4.15697 2.04759C4.11741 2.08715 4.06376 2.10938 4.00781 2.10938H0.84375V22.5703C0.84375 22.6263 0.821526 22.6799 0.781968 22.7195C0.742409 22.759 0.688757 22.7812 0.632812 22.7812ZM9.91406 2.10938H5.27344C5.21749 2.10938 5.16384 2.08715 5.12428 2.04759C5.08472 2.00803 5.0625 1.95438 5.0625 1.89844C5.0625 1.84249 5.08472 1.78884 5.12428 1.74928C5.16384 1.70972 5.21749 1.6875 5.27344 1.6875H9.91406C9.97001 1.6875 10.0237 1.70972 10.0632 1.74928C10.1028 1.78884 10.125 1.84249 10.125 1.89844C10.125 1.95438 10.1028 2.00803 10.0632 2.04759C10.0237 2.08715 9.97001 2.10938 9.91406 2.10938ZM15.8203 2.10938H11.1797C11.1237 2.10938 11.0701 2.08715 11.0305 2.04759C10.991 2.00803 10.9688 1.95438 10.9688 1.89844C10.9688 1.84249 10.991 1.78884 11.0305 1.74928C11.0701 1.70972 11.1237 1.6875 11.1797 1.6875H15.8203C15.8763 1.6875 15.9299 1.70972 15.9695 1.74928C16.009 1.78884 16.0312 1.84249 16.0312 1.89844C16.0312 1.95438 16.009 2.00803 15.9695 2.04759C15.9299 2.08715 15.8763 2.10938 15.8203 2.10938ZM21.7266 2.10938H17.0859C17.03 2.10938 16.9763 2.08715 16.9368 2.04759C16.8972 2.00803 16.875 1.95438 16.875 1.89844C16.875 1.84249 16.8972 1.78884 16.9368 1.74928C16.9763 1.70972 17.03 1.6875 17.0859 1.6875H21.7266C21.7825 1.6875 21.8362 1.70972 21.8757 1.74928C21.9153 1.78884 21.9375 1.84249 21.9375 1.89844C21.9375 1.95438 21.9153 2.00803 21.8757 2.04759C21.8362 2.08715 21.7825 2.10938 21.7266 2.10938ZM26.3672 2.10938H22.9922C22.9362 2.10938 22.8826 2.08715 22.843 2.04759C22.8035 2.00803 22.7812 1.95438 22.7812 1.89844C22.7812 1.84249 22.8035 1.78884 22.843 1.74928C22.8826 1.70972 22.9362 1.6875 22.9922 1.6875H26.3672C26.4231 1.6875 26.4768 1.70972 26.5163 1.74928C26.5559 1.78884 26.5781 1.84249 26.5781 1.89844C26.5781 1.95438 26.5559 2.00803 26.5163 2.04759C26.4768 2.08715 26.4231 2.10938 26.3672 2.10938Z" fill="#1C225C"/>
<path d="M11.1797 3.375H9.91406C9.85812 3.375 9.80447 3.35278 9.76491 3.31322C9.72535 3.27366 9.70312 3.22001 9.70312 3.16406V0.632812C9.70312 0.576868 9.72535 0.523216 9.76491 0.483657C9.80447 0.444099 9.85812 0.421875 9.91406 0.421875H11.1797C11.2356 0.421875 11.2893 0.444099 11.3288 0.483657C11.3684 0.523216 11.3906 0.576868 11.3906 0.632812V3.16406C11.3906 3.22001 11.3684 3.27366 11.3288 3.31322C11.2893 3.35278 11.2356 3.375 11.1797 3.375ZM10.125 2.95312H10.9688V0.84375H10.125V2.95312ZM5.27344 3.375H4.00781C3.95187 3.375 3.89822 3.35278 3.85866 3.31322C3.8191 3.27366 3.79688 3.22001 3.79688 3.16406V0.632812C3.79688 0.576868 3.8191 0.523216 3.85866 0.483657C3.89822 0.444099 3.95187 0.421875 4.00781 0.421875H5.27344C5.32938 0.421875 5.38303 0.444099 5.42259 0.483657C5.46215 0.523216 5.48438 0.576868 5.48438 0.632812V3.16406C5.48438 3.22001 5.46215 3.27366 5.42259 3.31322C5.38303 3.35278 5.32938 3.375 5.27344 3.375ZM4.21875 2.95312H5.0625V0.84375H4.21875V2.95312ZM17.0859 3.375H15.8203C15.7644 3.375 15.7107 3.35278 15.6712 3.31322C15.6316 3.27366 15.6094 3.22001 15.6094 3.16406V0.632812C15.6094 0.576868 15.6316 0.523216 15.6712 0.483657C15.7107 0.444099 15.7644 0.421875 15.8203 0.421875H17.0859C17.1419 0.421875 17.1955 0.444099 17.2351 0.483657C17.2747 0.523216 17.2969 0.576868 17.2969 0.632812V3.16406C17.2969 3.22001 17.2747 3.27366 17.2351 3.31322C17.1955 3.35278 17.1419 3.375 17.0859 3.375ZM16.0312 2.95312H16.875V0.84375H16.0312V2.95312ZM22.9922 3.375H21.7266C21.6706 3.375 21.617 3.35278 21.5774 3.31322C21.5378 3.27366 21.5156 3.22001 21.5156 3.16406V0.632812C21.5156 0.576868 21.5378 0.523216 21.5774 0.483657C21.617 0.444099 21.6706 0.421875 21.7266 0.421875H22.9922C23.0481 0.421875 23.1018 0.444099 23.1413 0.483657C23.1809 0.523216 23.2031 0.576868 23.2031 0.632812V3.16406C23.2031 3.22001 23.1809 3.27366 23.1413 3.31322C23.1018 3.35278 23.0481 3.375 22.9922 3.375ZM21.9375 2.95312H22.7812V0.84375H21.9375V2.95312ZM20.8828 26.5781C20.8269 26.5781 20.7732 26.5559 20.7337 26.5163C20.6941 26.4768 20.6719 26.4231 20.6719 26.3672V20.8828C20.6719 20.8269 20.6941 20.7732 20.7337 20.7337C20.7732 20.6941 20.8269 20.6719 20.8828 20.6719H26.3672C26.409 20.6718 26.4498 20.6841 26.4846 20.7073C26.5193 20.7305 26.5464 20.7634 26.5624 20.802C26.5784 20.8406 26.5826 20.8831 26.5744 20.9241C26.5663 20.965 26.5461 21.0027 26.5165 21.0322L21.0322 26.5165C20.9924 26.5559 20.9388 26.578 20.8828 26.5781ZM21.0938 21.0938V25.858L25.858 21.0938H21.0938ZM26.3672 6.75H0.632812C0.576868 6.75 0.523216 6.72778 0.483657 6.68822C0.444099 6.64866 0.421875 6.59501 0.421875 6.53906C0.421875 6.48312 0.444099 6.42947 0.483657 6.38991C0.523216 6.35035 0.576868 6.32812 0.632812 6.32812H26.3672C26.4231 6.32812 26.4768 6.35035 26.5163 6.38991C26.5559 6.42947 26.5781 6.48312 26.5781 6.53906C26.5781 6.59501 26.5559 6.64866 26.5163 6.68822C26.4768 6.72778 26.4231 6.75 26.3672 6.75ZM26.3672 4.64062C26.3112 4.64062 26.2576 4.6184 26.218 4.57884C26.1785 4.53928 26.1562 4.48563 26.1562 4.42969V3.58594C26.1562 3.52999 26.1785 3.47634 26.218 3.43678C26.2576 3.39722 26.3112 3.375 26.3672 3.375C26.4231 3.375 26.4768 3.39722 26.5163 3.43678C26.5559 3.47634 26.5781 3.52999 26.5781 3.58594V4.42969C26.5781 4.48563 26.5559 4.53928 26.5163 4.57884C26.4768 4.6184 26.4231 4.64062 26.3672 4.64062ZM0.632812 24.8906C0.576868 24.8906 0.523216 24.8684 0.483657 24.8288C0.444099 24.7893 0.421875 24.7356 0.421875 24.6797V23.8359C0.421875 23.78 0.444099 23.7263 0.483657 23.6868C0.523216 23.6472 0.576868 23.625 0.632812 23.625C0.688757 23.625 0.742409 23.6472 0.781968 23.6868C0.821526 23.7263 0.84375 23.78 0.84375 23.8359V24.6797C0.84375 24.7356 0.821526 24.7893 0.781968 24.8288C0.742409 24.8684 0.688757 24.8906 0.632812 24.8906Z" fill="#1C225C"/>
<path d="M20.8828 24.0469H3.16406C3.10812 24.0469 3.05447 24.0247 3.01491 23.9851C2.97535 23.9455 2.95312 23.8919 2.95312 23.8359V9.07031C2.95312 9.01437 2.97535 8.96072 3.01491 8.92116C3.05447 8.8816 3.10812 8.85938 3.16406 8.85938H23.8359C23.8919 8.85938 23.9455 8.8816 23.9851 8.92116C24.0247 8.96072 24.0469 9.01437 24.0469 9.07031V20.8828C24.0469 20.9388 24.0247 20.9924 23.9851 21.032C23.9455 21.0715 23.8919 21.0938 23.8359 21.0938C23.78 21.0938 23.7263 21.0715 23.6868 21.032C23.6472 20.9924 23.625 20.9388 23.625 20.8828V9.28125H3.375V23.625H20.8828C20.9388 23.625 20.9924 23.6472 21.032 23.6868C21.0715 23.7263 21.0938 23.78 21.0938 23.8359C21.0938 23.8919 21.0715 23.9455 21.032 23.9851C20.9924 24.0247 20.9388 24.0469 20.8828 24.0469Z" fill="#1C225C"/>
<path d="M12.0234 24.0469C11.9675 24.0469 11.9138 24.0247 11.8743 23.9851C11.8347 23.9455 11.8125 23.8919 11.8125 23.8359V9.07031C11.8125 9.01437 11.8347 8.96072 11.8743 8.92116C11.9138 8.8816 11.9675 8.85938 12.0234 8.85938C12.0794 8.85938 12.133 8.8816 12.1726 8.92116C12.2122 8.96072 12.2344 9.01437 12.2344 9.07031V23.8359C12.2344 23.8919 12.2122 23.9455 12.1726 23.9851C12.133 24.0247 12.0794 24.0469 12.0234 24.0469ZM14.9766 24.0469C14.9206 24.0469 14.867 24.0247 14.8274 23.9851C14.7878 23.9455 14.7656 23.8919 14.7656 23.8359V9.07031C14.7656 9.01437 14.7878 8.96072 14.8274 8.92116C14.867 8.8816 14.9206 8.85938 14.9766 8.85938C15.0325 8.85938 15.0862 8.8816 15.1257 8.92116C15.1653 8.96072 15.1875 9.01437 15.1875 9.07031V23.8359C15.1875 23.8919 15.1653 23.9455 15.1257 23.9851C15.0862 24.0247 15.0325 24.0469 14.9766 24.0469ZM6.11719 24.0469C6.06124 24.0469 6.00759 24.0247 5.96803 23.9851C5.92847 23.9455 5.90625 23.8919 5.90625 23.8359V9.07031C5.90625 9.01437 5.92847 8.96072 5.96803 8.92116C6.00759 8.8816 6.06124 8.85938 6.11719 8.85938C6.17313 8.85938 6.22678 8.8816 6.26634 8.92116C6.3059 8.96072 6.32812 9.01437 6.32812 9.07031V23.8359C6.32812 23.8919 6.3059 23.9455 6.26634 23.9851C6.22678 24.0247 6.17313 24.0469 6.11719 24.0469ZM9.07031 24.0469C9.01437 24.0469 8.96072 24.0247 8.92116 23.9851C8.8816 23.9455 8.85938 23.8919 8.85938 23.8359V9.07031C8.85938 9.01437 8.8816 8.96072 8.92116 8.92116C8.96072 8.8816 9.01437 8.85938 9.07031 8.85938C9.12626 8.85938 9.17991 8.8816 9.21947 8.92116C9.25903 8.96072 9.28125 9.01437 9.28125 9.07031V23.8359C9.28125 23.8919 9.25903 23.9455 9.21947 23.9851C9.17991 24.0247 9.12626 24.0469 9.07031 24.0469ZM17.9297 24.0469C17.8737 24.0469 17.8201 24.0247 17.7805 23.9851C17.741 23.9455 17.7188 23.8919 17.7188 23.8359V9.07031C17.7188 9.01437 17.741 8.96072 17.7805 8.92116C17.8201 8.8816 17.8737 8.85938 17.9297 8.85938C17.9856 8.85938 18.0393 8.8816 18.0788 8.92116C18.1184 8.96072 18.1406 9.01437 18.1406 9.07031V23.8359C18.1406 23.8919 18.1184 23.9455 18.0788 23.9851C18.0393 24.0247 17.9856 24.0469 17.9297 24.0469ZM20.8828 21.0938C20.8269 21.0938 20.7732 21.0715 20.7337 21.032C20.6941 20.9924 20.6719 20.9388 20.6719 20.8828V9.07031C20.6719 9.01437 20.6941 8.96072 20.7337 8.92116C20.7732 8.8816 20.8269 8.85938 20.8828 8.85938C20.9388 8.85938 20.9924 8.8816 21.032 8.92116C21.0715 8.96072 21.0938 9.01437 21.0938 9.07031V20.8828C21.0938 20.9388 21.0715 20.9924 21.032 21.032C20.9924 21.0715 20.9388 21.0938 20.8828 21.0938Z" fill="#1C225C"/>
<path d="M23.8359 12.2344H3.16406C3.10812 12.2344 3.05447 12.2122 3.01491 12.1726C2.97535 12.133 2.95312 12.0794 2.95312 12.0234C2.95312 11.9675 2.97535 11.9138 3.01491 11.8743C3.05447 11.8347 3.10812 11.8125 3.16406 11.8125H23.8359C23.8919 11.8125 23.9455 11.8347 23.9851 11.8743C24.0247 11.9138 24.0469 11.9675 24.0469 12.0234C24.0469 12.0794 24.0247 12.133 23.9851 12.1726C23.9455 12.2122 23.8919 12.2344 23.8359 12.2344ZM23.8359 15.1875H3.16406C3.10812 15.1875 3.05447 15.1653 3.01491 15.1257C2.97535 15.0862 2.95312 15.0325 2.95312 14.9766C2.95312 14.9206 2.97535 14.867 3.01491 14.8274C3.05447 14.7878 3.10812 14.7656 3.16406 14.7656H23.8359C23.8919 14.7656 23.9455 14.7878 23.9851 14.8274C24.0247 14.867 24.0469 14.9206 24.0469 14.9766C24.0469 15.0325 24.0247 15.0862 23.9851 15.1257C23.9455 15.1653 23.8919 15.1875 23.8359 15.1875ZM23.8359 18.1406H3.16406C3.10812 18.1406 3.05447 18.1184 3.01491 18.0788C2.97535 18.0393 2.95312 17.9856 2.95312 17.9297C2.95312 17.8737 2.97535 17.8201 3.01491 17.7805C3.05447 17.741 3.10812 17.7188 3.16406 17.7188H23.8359C23.8919 17.7188 23.9455 17.741 23.9851 17.7805C24.0247 17.8201 24.0469 17.8737 24.0469 17.9297C24.0469 17.9856 24.0247 18.0393 23.9851 18.0788C23.9455 18.1184 23.8919 18.1406 23.8359 18.1406ZM23.8359 21.0938H3.16406C3.10812 21.0938 3.05447 21.0715 3.01491 21.032C2.97535 20.9924 2.95312 20.9388 2.95312 20.8828C2.95312 20.8269 2.97535 20.7732 3.01491 20.7337C3.05447 20.6941 3.10812 20.6719 3.16406 20.6719H23.8359C23.8919 20.6719 23.9455 20.6941 23.9851 20.7337C24.0247 20.7732 24.0469 20.8269 24.0469 20.8828C24.0469 20.9388 24.0247 20.9924 23.9851 21.032C23.9455 21.0715 23.8919 21.0938 23.8359 21.0938Z" fill="#1C225C"/>
</g>
<defs>
<clipPath id="clip0_949_317">
<rect width="27" height="27" fill="white"/>
</clipPath>
</defs>
</svg>
