<svg width="29" height="29" viewBox="0 0 29 29" fill="none" xmlns="http://www.w3.org/2000/svg">
<g clip-path="url(#clip0_949_333)">
<path d="M4.07812 14.0469H2.26562C1.78492 14.0469 1.3239 13.8559 0.983994 13.516C0.644084 13.1761 0.453125 12.7151 0.453125 12.2344V2.26562C0.453125 1.78492 0.644084 1.3239 0.983994 0.983994C1.3239 0.644084 1.78492 0.453125 2.26562 0.453125H26.7344C27.2151 0.453125 27.6761 0.644084 28.016 0.983994C28.3559 1.3239 28.5469 1.78492 28.5469 2.26562V12.2344C28.5469 12.7151 28.3559 13.1761 28.016 13.516C27.6761 13.8559 27.2151 14.0469 26.7344 14.0469H24.8312" fill="#D9D8DA"/>
<path d="M14.5 11.3281C16.7523 11.3281 18.5781 9.50229 18.5781 7.25C18.5781 4.99771 16.7523 3.17188 14.5 3.17188C12.2477 3.17188 10.4219 4.99771 10.4219 7.25C10.4219 9.50229 12.2477 11.3281 14.5 11.3281Z" fill="#8C8890"/>
<path d="M2.26562 21.2969V19.4844C2.26563 18.7633 2.55206 18.0718 3.06193 17.5619C3.57179 17.0521 4.26332 16.7656 4.98438 16.7656H8.60938C9.33043 16.7656 10.022 17.0521 10.5318 17.5619C11.0417 18.0718 11.3281 18.7633 11.3281 19.4844V21.2969H2.26562Z" fill="#55BB8C"/>
<path d="M8.15625 14.5V16.7656C8.15625 17.006 8.06077 17.2365 7.89082 17.4064C7.72086 17.5764 7.49035 17.6719 7.25 17.6719H6.34375C6.1034 17.6719 5.87289 17.5764 5.70293 17.4064C5.53298 17.2365 5.4375 17.006 5.4375 16.7656V14.5H8.15625Z" fill="#FFD9AA"/>
<path d="M9.96875 12.2344C9.96752 12.4598 9.94323 12.6845 9.89625 12.905C9.74232 13.6126 9.35093 14.2461 8.7871 14.7005C8.22328 15.1548 7.52098 15.4026 6.79688 15.4026C6.07277 15.4026 5.37047 15.1548 4.80664 14.7005C4.24282 14.2461 3.85143 13.6126 3.6975 12.905C3.65052 12.6845 3.62623 12.4598 3.625 12.2344C3.625 11.3931 3.95918 10.5864 4.55402 9.99152C5.14886 9.39668 5.95564 9.0625 6.79688 9.0625C7.63811 9.0625 8.44489 9.39668 9.03973 9.99152C9.63457 10.5864 9.96875 11.3931 9.96875 12.2344Z" fill="#FFD9AA"/>
<path d="M9.96875 12.2344C9.96752 12.4598 9.94323 12.6845 9.89625 12.905C8.93124 13.3739 7.86966 13.6098 6.79688 13.5938C5.72409 13.6098 4.66251 13.3739 3.6975 12.905C3.65052 12.6845 3.62623 12.4598 3.625 12.2344C3.625 11.3931 3.95918 10.5864 4.55402 9.99152C5.14886 9.39668 5.95564 9.0625 6.79688 9.0625C7.63811 9.0625 8.44489 9.39668 9.03973 9.99152C9.63457 10.5864 9.96875 11.3931 9.96875 12.2344ZM0.453125 29V23.1094C0.453125 22.6287 0.644084 22.1677 0.983994 21.8277C1.3239 21.4878 1.78492 21.2969 2.26562 21.2969H11.3281C11.8088 21.2969 12.2698 21.4878 12.6098 21.8277C12.9497 22.1677 13.1406 22.6287 13.1406 23.1094V29" fill="#8C8890"/>
<path d="M17.6719 21.2969V19.4844C17.6719 18.7633 17.9583 18.0718 18.4682 17.5619C18.978 17.0521 19.6696 16.7656 20.3906 16.7656H24.0156C24.7367 16.7656 25.4282 17.0521 25.9381 17.5619C26.4479 18.0718 26.7344 18.7633 26.7344 19.4844V21.2969H17.6719Z" fill="#82C8EC"/>
<path d="M23.5625 14.5V16.7656C23.5625 17.006 23.467 17.2365 23.2971 17.4064C23.1271 17.5764 22.8966 17.6719 22.6562 17.6719H21.75C21.5096 17.6719 21.2791 17.5764 21.1092 17.4064C20.9392 17.2365 20.8438 17.006 20.8438 16.7656V14.5H23.5625Z" fill="#FFD9AA"/>
<path d="M25.375 12.2344C25.3738 12.4598 25.3495 12.6845 25.3025 12.905C25.1486 13.6126 24.7572 14.2461 24.1934 14.7005C23.6295 15.1548 22.9272 15.4026 22.2031 15.4026C21.479 15.4026 20.7767 15.1548 20.2129 14.7005C19.6491 14.2461 19.2577 13.6126 19.1037 12.905C19.0568 12.6845 19.0325 12.4598 19.0312 12.2344C19.0313 11.3931 19.3654 10.5864 19.9603 9.99152C20.5551 9.39668 21.3619 9.0625 22.2031 9.0625C23.0444 9.0625 23.8511 9.39668 24.446 9.99152C25.0408 10.5864 25.375 11.3931 25.375 12.2344Z" fill="#FFD9AA"/>
<path d="M25.375 12.2344C25.3738 12.4598 25.3495 12.6845 25.3025 12.905C24.3322 13.3586 23.2742 13.5938 22.2031 13.5938C21.132 13.5938 20.074 13.3586 19.1037 12.905C19.0568 12.6845 19.0325 12.4598 19.0312 12.2344C19.0312 11.3931 19.3654 10.5864 19.9603 9.99152C20.5551 9.39668 21.3619 9.0625 22.2031 9.0625C23.0444 9.0625 23.8511 9.39668 24.446 9.99152C25.0408 10.5864 25.375 11.3931 25.375 12.2344ZM15.8594 29V23.1094C15.8594 22.6287 16.0503 22.1677 16.3902 21.8277C16.7302 21.4878 17.1912 21.2969 17.6719 21.2969H26.7344C27.2151 21.2969 27.6761 21.4878 28.016 21.8277C28.3559 22.1677 28.5469 22.6287 28.5469 23.1094V29" fill="#8C8890"/>
<path d="M13.8594 5.96856L16.0471 7.25L13.8594 8.53144V5.96856Z" fill="#ED456A"/>
<path d="M25.0007 14.5H26.7344C27.3353 14.5 27.9115 14.2613 28.3364 13.8364C28.7613 13.4115 29 12.8353 29 12.2344V2.26562C29 1.66474 28.7613 1.08847 28.3364 0.663586C27.9115 0.238699 27.3353 0 26.7344 0L2.26562 0C1.66474 0 1.08847 0.238699 0.663586 0.663586C0.238699 1.08847 0 1.66474 0 2.26562L0 12.2344C0 12.8353 0.238699 13.4115 0.663586 13.8364C1.08847 14.2613 1.66474 14.5 2.26562 14.5H3.99928C4.27696 14.8445 4.6147 15.1358 4.99616 15.36C4.99138 15.3752 4.98744 15.3906 4.98438 15.4062V16.3125C4.14314 16.3125 3.33636 16.6467 2.74152 17.2415C2.14668 17.8364 1.8125 18.6431 1.8125 19.4844V20.89C1.30091 20.9944 0.84109 21.2723 0.51082 21.6767C0.18055 22.0812 0.000102288 22.5872 0 23.1094L0 28.5469C0 28.6671 0.0477398 28.7823 0.132717 28.8673C0.217695 28.9523 0.332949 29 0.453125 29C0.573301 29 0.688555 28.9523 0.773533 28.8673C0.85851 28.7823 0.90625 28.6671 0.90625 28.5469V23.1094C0.90625 22.7488 1.04947 22.4031 1.3044 22.1482C1.55933 21.8932 1.9051 21.75 2.26562 21.75H11.3281C11.6887 21.75 12.0344 21.8932 12.2893 22.1482C12.5443 22.4031 12.6875 22.7488 12.6875 23.1094V28.5469C12.6875 28.6671 12.7352 28.7823 12.8202 28.8673C12.9052 28.9523 13.0204 29 13.1406 29C13.2608 29 13.3761 28.9523 13.461 28.8673C13.546 28.7823 13.5938 28.6671 13.5938 28.5469V23.1094C13.5936 22.5872 13.4132 22.0812 13.0829 21.6767C12.7527 21.2723 12.2928 20.9944 11.7812 20.89V19.4844C11.7812 18.6431 11.4471 17.8364 10.8522 17.2415C10.2574 16.6467 9.45061 16.3125 8.60938 16.3125V15.4062C8.6072 15.3907 8.60418 15.3753 8.60031 15.36C8.98177 15.1358 9.31951 14.8445 9.59719 14.5H19.4055C19.6832 14.8445 20.0209 15.1358 20.4024 15.36C20.3976 15.3752 20.3937 15.3906 20.3906 15.4062V16.3125C19.5494 16.3125 18.7426 16.6467 18.1478 17.2415C17.5529 17.8364 17.2188 18.6431 17.2188 19.4844V20.89C16.7072 20.9944 16.2473 21.2723 15.9171 21.6767C15.5868 22.0812 15.4064 22.5872 15.4062 23.1094V28.5469C15.4062 28.6671 15.454 28.7823 15.539 28.8673C15.6239 28.9523 15.7392 29 15.8594 29C15.9796 29 16.0948 28.9523 16.1798 28.8673C16.2648 28.7823 16.3125 28.6671 16.3125 28.5469V23.1094C16.3125 22.7488 16.4557 22.4031 16.7107 22.1482C16.9656 21.8932 17.3113 21.75 17.6719 21.75H26.7344C27.0949 21.75 27.4407 21.8932 27.6956 22.1482C27.9505 22.4031 28.0938 22.7488 28.0938 23.1094V28.5469C28.0938 28.6671 28.1415 28.7823 28.2265 28.8673C28.3114 28.9523 28.4267 29 28.5469 29C28.6671 29 28.7823 28.9523 28.8673 28.8673C28.9523 28.7823 29 28.6671 29 28.5469V23.1094C28.9999 22.5872 28.8195 22.0812 28.4892 21.6767C28.1589 21.2723 27.6991 20.9944 27.1875 20.89V19.4844C27.1875 18.6431 26.8533 17.8364 26.2585 17.2415C25.6636 16.6467 24.8569 16.3125 24.0156 16.3125V15.4062C24.0135 15.3907 24.0104 15.3753 24.0066 15.36C24.387 15.1356 24.7238 14.8442 25.0007 14.5ZM8.60938 17.2188C8.9069 17.2188 9.20151 17.2774 9.47639 17.3912C9.75127 17.5051 10.001 17.672 10.2114 17.8823C10.4218 18.0927 10.5887 18.3425 10.7025 18.6174C10.8164 18.8922 10.875 19.1868 10.875 19.4844V20.8438H2.71875V19.4844C2.71875 18.8835 2.95745 18.3072 3.38234 17.8823C3.80722 17.4574 4.38349 17.2188 4.98438 17.2188H5.06775C5.16113 17.4829 5.33384 17.7117 5.56225 17.8739C5.79065 18.0361 6.0636 18.1238 6.34375 18.125H7.25C7.53015 18.1238 7.8031 18.0361 8.0315 17.8739C8.25991 17.7117 8.43262 17.4829 8.526 17.2188H8.60938ZM5.89062 16.7656V15.7307C6.18597 15.8121 6.49053 15.8554 6.79688 15.8594C7.10322 15.8554 7.40778 15.8121 7.70312 15.7307V16.7656C7.70312 16.8858 7.65539 17.0011 7.57041 17.086C7.48543 17.171 7.37018 17.2188 7.25 17.2188H6.34375C6.22357 17.2188 6.10832 17.171 6.02334 17.086C5.93836 17.0011 5.89062 16.8858 5.89062 16.7656ZM6.79688 14.9531C6.3434 14.952 5.8974 14.8376 5.49947 14.6201C5.10155 14.4026 4.76435 14.089 4.51856 13.7079C6.00386 14.1596 7.58989 14.1596 9.07519 13.7079C8.8294 14.089 8.4922 14.4026 8.09428 14.6201C7.69635 14.8376 7.25035 14.952 6.79688 14.9531ZM9.47937 12.5905C7.75819 13.2852 5.83465 13.2852 4.11347 12.5905C4.09377 12.4727 4.08196 12.3537 4.07812 12.2344C4.07812 11.5133 4.36456 10.8218 4.87443 10.3119C5.38429 9.80206 6.07582 9.51562 6.79688 9.51562C7.51793 9.51562 8.20946 9.80206 8.71932 10.3119C9.22919 10.8218 9.51562 11.5133 9.51562 12.2344C9.51149 12.3538 9.49938 12.4728 9.47937 12.5905ZM18.6697 13.021C18.6697 13.0346 18.6769 13.0473 18.6823 13.0609C18.7299 13.2432 18.7921 13.4214 18.8681 13.5938H10.1319C10.2079 13.4214 10.2701 13.2432 10.3177 13.0609C10.3222 13.0473 10.3267 13.0346 10.3303 13.021C10.4513 12.4901 10.4512 11.9388 10.3299 11.408C10.2086 10.8772 9.96929 10.3805 9.62974 9.9549C9.29019 9.52926 8.85912 9.18557 8.36853 8.94937C7.87795 8.71316 7.34046 8.59051 6.79597 8.59051C6.25148 8.59051 5.71399 8.71316 5.2234 8.94937C4.73282 9.18557 4.30175 9.52926 3.9622 9.9549C3.62265 10.3805 3.38334 10.8772 3.26205 11.408C3.14076 11.9388 3.14061 12.4901 3.26159 13.021C3.26159 13.0346 3.26884 13.0473 3.27428 13.0609C3.32246 13.2432 3.3852 13.4214 3.46187 13.5938H2.26562C1.9051 13.5938 1.55933 13.4505 1.3044 13.1956C1.04947 12.9407 0.90625 12.5949 0.90625 12.2344V2.26562C0.90625 1.9051 1.04947 1.55933 1.3044 1.3044C1.55933 1.04947 1.9051 0.90625 2.26562 0.90625H26.7344C27.0949 0.90625 27.4407 1.04947 27.6956 1.3044C27.9505 1.55933 28.0938 1.9051 28.0938 2.26562V12.2344C28.0938 12.5949 27.9505 12.9407 27.6956 13.1956C27.4407 13.4505 27.0949 13.5938 26.7344 13.5938H25.5381C25.6142 13.4214 25.6763 13.2432 25.7239 13.0609C25.7284 13.0473 25.733 13.0346 25.7366 13.021C25.8576 12.4901 25.8574 11.9388 25.7361 11.408C25.6148 10.8772 25.3755 10.3805 25.036 9.9549C24.6964 9.52926 24.2654 9.18557 23.7748 8.94937C23.2842 8.71316 22.7467 8.59051 22.2022 8.59051C21.6577 8.59051 21.1202 8.71316 20.6297 8.94937C20.1391 9.18557 19.708 9.52926 19.3684 9.9549C19.0289 10.3805 18.7896 10.8772 18.6683 11.408C18.547 11.9388 18.5469 12.4901 18.6678 13.021H18.6697ZM19.5206 12.5905C19.5006 12.4728 19.4885 12.3538 19.4844 12.2344C19.4844 11.5133 19.7708 10.8218 20.2807 10.3119C20.7905 9.80206 21.4821 9.51562 22.2031 9.51562C22.9242 9.51562 23.6157 9.80206 24.1256 10.3119C24.6354 10.8218 24.9219 11.5133 24.9219 12.2344C24.9177 12.3538 24.9056 12.4728 24.8856 12.5905C23.1647 13.285 21.2415 13.285 19.5206 12.5905ZM24.0156 17.2188C24.6165 17.2188 25.1928 17.4574 25.6177 17.8823C26.0426 18.3072 26.2812 18.8835 26.2812 19.4844V20.8438H18.125V19.4844C18.125 18.8835 18.3637 18.3072 18.7886 17.8823C19.2135 17.4574 19.7897 17.2188 20.3906 17.2188H20.474C20.5674 17.4829 20.7401 17.7117 20.9685 17.8739C21.1969 18.0361 21.4699 18.1238 21.75 18.125H22.6562C22.9364 18.1238 23.2093 18.0361 23.4378 17.8739C23.6662 17.7117 23.8389 17.4829 23.9323 17.2188H24.0156ZM21.2969 16.7656V15.7307C21.8889 15.9023 22.5174 15.9023 23.1094 15.7307V16.7656C23.1094 16.8858 23.0616 17.0011 22.9767 17.086C22.8917 17.171 22.7764 17.2188 22.6562 17.2188H21.75C21.6298 17.2188 21.5146 17.171 21.4296 17.086C21.3446 17.0011 21.2969 16.8858 21.2969 16.7656ZM22.2031 14.9531C21.7496 14.952 21.3036 14.8376 20.9057 14.6201C20.5078 14.4026 20.1706 14.089 19.9248 13.7079C21.4101 14.1596 22.9961 14.1596 24.4814 13.7079C24.2357 14.089 23.8985 14.4026 23.5005 14.6201C23.1026 14.8376 22.6566 14.952 22.2031 14.9531ZM14.5 2.71875C13.6038 2.71875 12.7277 2.9845 11.9826 3.4824C11.2374 3.9803 10.6566 4.68799 10.3137 5.51597C9.97071 6.34394 9.88098 7.25503 10.0558 8.134C10.2307 9.01298 10.6622 9.82037 11.2959 10.4541C11.9296 11.0878 12.737 11.5193 13.616 11.6942C14.495 11.869 15.4061 11.7793 16.234 11.4363C17.062 11.0934 17.7697 10.5126 18.2676 9.76743C18.7655 9.02227 19.0312 8.1462 19.0312 7.25C19.0298 6.04868 18.552 4.89697 17.7025 4.04751C16.853 3.19805 15.7013 2.72019 14.5 2.71875ZM14.5 10.875C13.783 10.875 13.0822 10.6624 12.4861 10.2641C11.8899 9.86576 11.4253 9.29961 11.1509 8.63723C10.8766 7.97485 10.8048 7.24598 10.9447 6.5428C11.0845 5.83962 11.4298 5.1937 11.9367 4.68674C12.4437 4.17977 13.0896 3.83452 13.7928 3.69465C14.496 3.55478 15.2248 3.62657 15.8872 3.90094C16.5496 4.1753 17.1158 4.63993 17.5141 5.23606C17.9124 5.83219 18.125 6.53304 18.125 7.25C18.125 8.21141 17.7431 9.13344 17.0633 9.81326C16.3834 10.4931 15.4614 10.875 14.5 10.875ZM14.0886 5.57706C14.0197 5.53665 13.9413 5.51516 13.8615 5.51478C13.7816 5.51439 13.7031 5.53512 13.6338 5.57486C13.5645 5.6146 13.507 5.67195 13.467 5.74109C13.427 5.81022 13.406 5.8887 13.4062 5.96856V8.53144C13.406 8.6113 13.427 8.68978 13.467 8.75891C13.507 8.82805 13.5645 8.8854 13.6338 8.92514C13.7031 8.96488 13.7816 8.98561 13.8615 8.98522C13.9413 8.98484 14.0197 8.96335 14.0886 8.92294L16.2762 7.6415C16.3445 7.60155 16.4011 7.54444 16.4404 7.47583C16.4798 7.40723 16.5005 7.32953 16.5005 7.25045C16.5005 7.17138 16.4798 7.09367 16.4404 7.02507C16.4011 6.95647 16.3445 6.89936 16.2762 6.85941L14.0886 5.57706ZM14.3124 7.74028V6.75881L15.1507 7.25L14.3124 7.74028Z" fill="black"/>
</g>
<defs>
<clipPath id="clip0_949_333">
<rect width="29" height="29" fill="white"/>
</clipPath>
</defs>
</svg>
