<svg width="47" height="47" viewBox="0 0 47 47" fill="none" xmlns="http://www.w3.org/2000/svg">
<circle cx="23.5" cy="23.5" r="23.5" fill="#E1F1FC"/>
<g clip-path="url(#clip0_708_9408)">
<path d="M30.2564 15.8621H29.0071L27.3304 14.1857C27.3203 14.1779 27.3097 14.1709 27.2986 14.1646C27.2884 14.1567 27.2776 14.1495 27.2663 14.1431C27.2231 14.1163 27.1735 14.1013 27.1227 14.0996H19.8776C19.8268 14.1013 19.7772 14.1163 19.734 14.1431C19.7227 14.1495 19.7119 14.1567 19.7016 14.1646C19.6906 14.1709 19.68 14.1779 19.6699 14.1856L17.9932 15.8621H16.7439C16.3545 15.8625 15.9811 16.0174 15.7058 16.2927C15.4304 16.5681 15.2756 16.9414 15.2751 17.3309V31.4309C15.2756 31.8203 15.4304 32.1936 15.7058 32.469C15.9811 32.7443 16.3545 32.8992 16.7439 32.8996H30.2564C30.6458 32.8992 31.0192 32.7443 31.2945 32.469C31.5699 32.1936 31.7247 31.8203 31.7251 31.4309V17.3309C31.7247 16.9414 31.5699 16.5681 31.2945 16.2927C31.0192 16.0174 30.6458 15.8625 30.2564 15.8621ZM26.4136 14.6871L23.5001 17.6008L20.5867 14.6871H26.4136ZM22.3251 32.3121H16.7439C16.5103 32.3119 16.2863 32.2189 16.121 32.0537C15.9558 31.8885 15.8629 31.6645 15.8626 31.4309V17.3309C15.8629 17.0972 15.9558 16.8732 16.121 16.708C16.2863 16.5428 16.5103 16.4499 16.7439 16.4496H17.8951L21.0658 19.62C21.2312 19.785 21.4553 19.8776 21.6889 19.8776C21.9225 19.8776 22.1466 19.785 22.312 19.62L22.3251 19.6068V32.3121ZM22.4028 18.6983L21.8966 19.2047C21.8414 19.2596 21.7667 19.2905 21.6889 19.2905C21.611 19.2905 21.5363 19.2596 21.4812 19.2047L18.4811 16.2049L19.8776 14.8087L21.4812 16.4124L23.0848 18.0162L22.4235 18.6776C22.4162 18.6842 22.4093 18.6911 22.4028 18.6983ZM24.0876 32.3121H22.9126V19.0192L23.5001 18.4316L24.0876 19.0192V32.3121ZM24.5768 18.6776L23.9155 18.0162L25.5191 16.4125L27.1227 14.8087L28.5192 16.2049L25.5191 19.2047C25.4919 19.232 25.4595 19.2536 25.4238 19.2684C25.3882 19.2831 25.35 19.2907 25.3114 19.2907C25.2729 19.2907 25.2347 19.2831 25.199 19.2684C25.1634 19.2536 25.131 19.232 25.1038 19.2047L24.5975 18.6983C24.591 18.6911 24.5841 18.6842 24.5768 18.6776ZM31.1376 31.4309C31.1374 31.6645 31.0445 31.8885 30.8793 32.0537C30.714 32.2189 30.49 32.3119 30.2564 32.3121H24.6751V19.6068L24.6883 19.62C24.8537 19.785 25.0778 19.8776 25.3114 19.8776C25.545 19.8776 25.7691 19.785 25.9345 19.62L29.1052 16.4496H30.2564C30.49 16.4499 30.714 16.5428 30.8793 16.708C31.0445 16.8732 31.1374 17.0972 31.1376 17.3309V31.4309ZM29.0814 21.7371H26.7314C26.4978 21.7374 26.2738 21.8303 26.1085 21.9955C25.9433 22.1607 25.8504 22.3847 25.8501 22.6184V24.9684C25.8501 25.5137 26.0668 26.0367 26.4524 26.4223C26.838 26.808 27.361 27.0246 27.9064 27.0246C28.4517 27.0246 28.9748 26.808 29.3604 26.4223C29.746 26.0367 29.9626 25.5137 29.9626 24.9684V22.6184C29.9624 22.3847 29.8695 22.1607 29.7043 21.9955C29.539 21.8303 29.315 21.7374 29.0814 21.7371ZM29.3751 24.9684C29.3751 25.3579 29.2204 25.7315 28.945 26.0069C28.6695 26.2824 28.2959 26.4371 27.9064 26.4371C27.5169 26.4371 27.1433 26.2824 26.8678 26.0069C26.5924 25.7315 26.4376 25.3579 26.4376 24.9684V23.4996H29.3751V24.9684ZM29.3751 22.9121H26.4376V22.6184C26.4377 22.5405 26.4687 22.4658 26.5238 22.4108C26.5789 22.3557 26.6535 22.3247 26.7314 22.3246H29.0814C29.1593 22.3247 29.2339 22.3557 29.289 22.4108C29.3441 22.4658 29.375 22.5405 29.3751 22.6184V22.9121ZM23.5001 30.2559C23.442 30.2559 23.3853 30.2731 23.3369 30.3054C23.2886 30.3376 23.251 30.3835 23.2288 30.4372C23.2065 30.4909 23.2007 30.5499 23.212 30.6069C23.2234 30.6639 23.2514 30.7162 23.2924 30.7573C23.3335 30.7984 23.3859 30.8264 23.4428 30.8377C23.4998 30.849 23.5589 30.8432 23.6126 30.821C23.6662 30.7988 23.7121 30.7611 23.7444 30.7128C23.7767 30.6645 23.7939 30.6077 23.7939 30.5496C23.7939 30.4717 23.7629 30.397 23.7079 30.3419C23.6528 30.2868 23.5781 30.2559 23.5001 30.2559ZM23.2064 21.1496C23.2064 21.2077 23.2236 21.2645 23.2559 21.3128C23.2882 21.3611 23.3341 21.3988 23.3877 21.421C23.4414 21.4432 23.5005 21.449 23.5575 21.4377C23.6144 21.4264 23.6668 21.3984 23.7079 21.3573C23.7489 21.3162 23.7769 21.2639 23.7883 21.2069C23.7996 21.1499 23.7938 21.0909 23.7715 21.0372C23.7493 20.9835 23.7117 20.9376 23.6633 20.9054C23.615 20.8731 23.5582 20.8559 23.5001 20.8559C23.4222 20.8559 23.3475 20.8868 23.2924 20.9419C23.2373 20.997 23.2064 21.0717 23.2064 21.1496ZM23.5001 23.2059C23.442 23.2059 23.3853 23.2231 23.3369 23.2554C23.2886 23.2876 23.251 23.3335 23.2288 23.3872C23.2065 23.4409 23.2007 23.4999 23.212 23.5569C23.2234 23.6139 23.2514 23.6662 23.2924 23.7073C23.3335 23.7484 23.3859 23.7764 23.4428 23.7877C23.4998 23.799 23.5589 23.7932 23.6126 23.771C23.6662 23.7488 23.7121 23.7111 23.7444 23.6628C23.7767 23.6145 23.7939 23.5577 23.7939 23.4996C23.7939 23.4217 23.7629 23.347 23.7079 23.2919C23.6528 23.2368 23.5781 23.2059 23.5001 23.2059ZM23.5001 27.9059C23.442 27.9059 23.3853 27.9231 23.3369 27.9554C23.2886 27.9876 23.251 28.0335 23.2288 28.0872C23.2065 28.1409 23.2007 28.1999 23.212 28.2569C23.2234 28.3139 23.2514 28.3662 23.2924 28.4073C23.3335 28.4484 23.3859 28.4764 23.4428 28.4877C23.4998 28.499 23.5589 28.4932 23.6126 28.471C23.6662 28.4488 23.7121 28.4111 23.7444 28.3628C23.7767 28.3145 23.7939 28.2577 23.7939 28.1996C23.7939 28.1217 23.7629 28.047 23.7079 27.9919C23.6528 27.9368 23.5781 27.9059 23.5001 27.9059ZM23.5001 25.5559C23.442 25.5559 23.3853 25.5731 23.3369 25.6054C23.2886 25.6376 23.251 25.6835 23.2288 25.7372C23.2065 25.7909 23.2007 25.8499 23.212 25.9069C23.2234 25.9639 23.2514 26.0162 23.2924 26.0573C23.3335 26.0984 23.3859 26.1264 23.4428 26.1377C23.4998 26.149 23.5589 26.1432 23.6126 26.121C23.6662 26.0988 23.7121 26.0611 23.7444 26.0128C23.7767 25.9645 23.7939 25.9077 23.7939 25.8496C23.7939 25.7717 23.7629 25.697 23.7079 25.6419C23.6528 25.5868 23.5781 25.5559 23.5001 25.5559Z" fill="#03B2D5"/>
</g>
<defs>
<clipPath id="clip0_708_9408">
<rect width="18.8" height="18.8" fill="white" transform="translate(14.1001 14.0996)"/>
</clipPath>
</defs>
</svg>
