<svg width="47" height="47" viewBox="0 0 47 47" fill="none" xmlns="http://www.w3.org/2000/svg">
<circle cx="23.5" cy="23.5" r="23.5" fill="#FCEEF2"/>
<g clip-path="url(#clip0_708_9423)">
<path d="M32.1165 14.8838H14.8832C13.6984 14.8838 12.7398 15.8532 12.7398 17.038L12.729 29.963C12.729 31.1477 13.6984 32.1171 14.8832 32.1171H32.1165C33.3013 32.1171 34.2707 31.1477 34.2707 29.963V17.038C34.2707 15.8532 33.3013 14.8838 32.1165 14.8838ZM31.0394 29.963H15.9603C15.3679 29.963 14.8832 29.4783 14.8832 28.8859V19.1921L22.3581 23.8667C23.0582 24.3083 23.9414 24.3083 24.6415 23.8667L32.1165 19.1921V28.8859C32.1165 29.4783 31.6318 29.963 31.0394 29.963ZM23.4998 22.4234L14.8832 17.038H32.1165L23.4998 22.4234Z" fill="#F93E73"/>
</g>
<defs>
<clipPath id="clip0_708_9423">
<rect width="25.85" height="25.85" fill="white" transform="translate(10.575 10.5752)"/>
</clipPath>
</defs>
</svg>
