<svg width="47" height="47" viewBox="0 0 47 47" fill="none" xmlns="http://www.w3.org/2000/svg">
<circle cx="23.5" cy="23.5" r="23.5" fill="#EDF8EB"/>
<g clip-path="url(#clip0_708_9441)">
<path d="M23.4998 35.2504C24.7923 35.2504 25.8498 34.1929 25.8498 32.9004H21.1498C21.1498 34.1929 22.1956 35.2504 23.4998 35.2504ZM30.5498 28.2004V22.3254C30.5498 18.7181 28.6228 15.6984 25.2623 14.8994V14.1004C25.2623 13.1251 24.4751 12.3379 23.4998 12.3379C22.5246 12.3379 21.7373 13.1251 21.7373 14.1004V14.8994C18.3651 15.6984 16.4498 18.7064 16.4498 22.3254V28.2004L14.9341 29.7161C14.1938 30.4564 14.7108 31.7254 15.7566 31.7254H31.2313C32.2771 31.7254 32.8058 30.4564 32.0656 29.7161L30.5498 28.2004Z" fill="#3EB229"/>
</g>
<defs>
<clipPath id="clip0_708_9441">
<rect width="28.2" height="28.2" fill="white" transform="translate(9.3999 9.40039)"/>
</clipPath>
</defs>
</svg>
