<svg width="1440" height="121" viewBox="0 0 1440 121" fill="none" xmlns="http://www.w3.org/2000/svg">
<path d="M1036.57 82.7795L1050.35 99.3192" stroke="#143D59" stroke-linecap="round"/>
<path d="M530.271 38.6737L539.796 46.1584C541.722 47.6711 544.459 47.5671 546.264 45.9126L551.032 41.5424C552.837 39.8879 555.574 39.7839 557.499 41.2966L563.171 45.7526C565.312 47.4349 568.405 47.0947 570.13 44.9872L575.295 38.6737" stroke="#143D59" stroke-linecap="round"/>
<path d="M137.912 1V11.4022C137.912 12.9545 138.633 14.4188 139.863 15.3653L142.905 17.705C145.975 20.0667 145.31 24.8719 141.713 26.3105L139.217 27.3089C137.319 28.0683 136.074 29.9068 136.074 31.9513V36.836" stroke="#143D59" stroke-linecap="round"/>
<path d="M202.233 2.43213V16.63C202.233 18.1139 202.892 19.5211 204.032 20.4711L204.591 20.9367C206.425 22.4649 206.922 25.0764 205.779 27.1721L202.233 33.6738" stroke="#143D59" stroke-width="0.3" stroke-linecap="round"/>
<path d="M1 93.8061C6.20694 85.8425 19.1937 74.6935 29.485 93.8061" stroke="#143D59" stroke-linecap="round"/>
<path d="M1216.67 97.4815L1225.41 86.0431C1227.15 83.769 1230.44 83.4166 1232.63 85.2707L1242.25 93.4491C1244.68 95.5194 1248.41 94.8039 1249.9 91.9789L1251.99 88.0374C1253.59 85.0081 1257.7 84.454 1260.05 86.95L1269.96 97.4815" stroke="#143D59" stroke-linecap="round"/>
<circle cx="320.767" cy="61.6456" r="14.9708" stroke="#143D59" stroke-width="1.3"/>
<circle cx="361.198" cy="76.3475" r="15.4708" stroke="#143D59" stroke-width="0.3"/>
<circle cx="244.501" cy="80.9419" r="6.85098" stroke="#143D59"/>
<path d="M159.965 102.076C163.334 92.581 173.38 79.288 186.612 102.076" stroke="#143D59" stroke-width="0.3" stroke-linecap="round"/>
<path d="M519.916 108.199L492.807 87.0335L524.691 74.1388L519.916 108.199Z" stroke="#143D59"/>
<path d="M556.934 116.199L528.869 94.2873L561.877 80.938L556.934 116.199Z" stroke="#143D59" stroke-width="0.3"/>
<path d="M650.158 91.9682L670.373 67.1587" stroke="#143D59" stroke-width="0.3" stroke-linecap="round"/>
<path d="M654.318 109.427L674.533 84.6173" stroke="#143D59" stroke-linecap="round"/>
<path d="M492.597 20.2964L498.699 29.4497C500.348 31.9227 503.777 32.42 506.06 30.5173L514.05 23.8586C516.334 21.9558 519.763 22.4532 521.412 24.9262L523.549 28.1318C525.475 31.0211 529.687 31.1154 531.741 28.3151L537.621 20.2964" stroke="#143D59" stroke-width="0.3" stroke-linecap="round"/>
<circle cx="773.772" cy="55.2134" r="16.0397" stroke="#143D59"/>
<circle cx="816.04" cy="38.6739" r="16.3897" stroke="#143D59" stroke-width="0.3"/>
<circle cx="801.338" cy="108.508" r="6.85098" stroke="#143D59"/>
<rect x="941.506" y="35.4983" width="32.0794" height="30.2417" stroke="#143D59"/>
<rect x="979.749" y="24.1218" width="32.7794" height="30.9417" stroke="#143D59" stroke-width="0.3"/>
<path d="M1034.73 98.4004L1050.35 84.6173" stroke="#143D59" stroke-linecap="round"/>
<path d="M1151.99 41.9429L1132.27 76.3397L1112.35 42.0648L1151.99 41.9429Z" stroke="#143D59"/>
<path d="M1189.35 26.889L1169.03 62.3376L1148.49 27.0146L1189.35 26.889Z" stroke="#143D59" stroke-width="0.3"/>
<path d="M1275.48 83.6985L1286.68 74.5968C1288.67 72.9811 1291.55 73.1301 1293.37 74.9418L1298.28 79.8561C1300.35 81.9245 1303.74 81.7833 1305.63 79.5503L1309.16 75.386C1310.88 73.3513 1313.89 73.0248 1316.01 74.6439L1327.85 83.6985" stroke="#143D59" stroke-width="0.3" stroke-linecap="round"/>
<path d="M1387.58 49.7003H1428.01" stroke="#143D59" stroke-linecap="round"/>
<path d="M1407.79 35.9172H1440.87" stroke="#143D59" stroke-linecap="round"/>
</svg>
