<svg width="47" height="47" viewBox="0 0 47 47" fill="none" xmlns="http://www.w3.org/2000/svg">
<circle cx="23.5" cy="23.5" r="23.5" fill="#EDF8EB"/>
<path d="M23.5011 21.1892C20.0966 20.2648 19.0018 19.317 19.0018 17.8287C19.0018 16.121 20.509 14.9225 23.0511 14.9225C25.7207 14.9225 26.7105 16.2542 26.8005 18.2125H30.115C30.0175 15.51 28.4352 13.0503 25.3008 12.2435V8.8125H20.8015V12.1965C17.892 12.8623 15.5524 14.8207 15.5524 17.8522C15.5524 21.4712 18.4244 23.2728 22.6012 24.3225C26.3581 25.2625 27.1005 26.6333 27.1005 28.106C27.1005 29.1792 26.3731 30.9025 23.0511 30.9025C19.9616 30.9025 18.7393 29.4533 18.5819 27.6125H15.2749C15.4624 31.0435 17.9145 32.9627 20.8015 33.6128V37.0125H25.3008V33.6442C28.2178 33.0567 30.5499 31.2942 30.5499 28.0747C30.5499 23.641 26.9055 22.1213 23.5011 21.1892Z" fill="#3EB329"/>
</svg>
